# xmcd
#
# Track frame offsets: 
#        182
#        24002
#        40877
#        58035
#        81205
#        102400
#        128922
#        143547
#
# Disc length: 2095 seconds
#
# Revision: 4
# Processed by: cddbd v1.5.1PL0 Copyright (c) Steve Scherf et al.
# Submitted via: ExactAudioCopy v0.95a5
#
DISCID=5f082d08
DTITLE=Various Artist - House of Blues Sampler- Hot Biscuits
DYEAR=1996
DGENRE=Blues
TTITLE0=Jimmy Rip - Cold Comfort
TTITLE1=Gales Brothers - Hand Me Down
TTITLE2=Cissy Houston - I'm Somebody
TTITLE3=John Mooney - Sacred Ground
TTITLE4=Becky Barksdale - Satisfy Me
TTITLE5=Paul Black - Moo Goo
TTITLE6=Blind Boys of Alabama - Didn't It Rain
TTITLE7=Lightnin' Hopkins - Mojo Hand
EXTD=LABEL =House of Blues Music Company\nID =7001087008-2\nUPC =70
EXTD=0108-700825\nCOPYRIGHT =1996\n*****\nYEAR: 1996
EXTT0=
EXTT1=
EXTT2=
EXTT3=
EXTT4=
EXTT5=
EXTT6=
EXTT7=
PLAYORDER=
